<svg width="433" height="275" viewBox="0 0 433 275" fill="none" xmlns="http://www.w3.org/2000/svg">
<path d="M88.7115 151.749C73.4715 145.549 60.3315 136.389 49.6615 125.209C47.2215 140.079 47.7315 155.679 51.6815 171.219C63.3715 217.189 101.761 249.289 146.061 255.229L154.551 273.399C155.501 275.419 158.321 275.559 159.461 273.639L170.031 255.849C176.271 255.339 182.551 254.339 188.821 252.739C233.461 241.379 265.041 204.859 272.271 162.199C247.261 159.109 222.781 150.419 200.851 136.039C170.041 160.159 127.531 167.549 88.6915 151.749L88.7115 151.749Z" fill="white"/>
<path d="M242.603 65.4589C255.613 79.0489 265.393 96.0689 270.363 115.599C274.363 131.339 274.843 147.159 272.293 162.199C303.303 166.029 335.123 161.239 363.893 147.939L391.343 165.429C393.223 166.629 395.683 165.229 395.613 162.999L394.613 129.509C402.073 123.869 409.183 117.569 415.813 110.529C479.623 42.7689 476.433 -63.8811 408.673 -127.701C340.913 -191.511 234.263 -188.321 170.443 -120.561C154.953 -104.111 143.423 -85.3611 135.793 -65.5011C148.493 -64.9911 161.313 -62.3111 173.763 -57.2411C223.473 -37.0111 250.953 14.6389 242.593 65.4589L242.603 65.4589Z" fill="white"/>
<path d="M270.361 115.599C265.391 96.069 255.611 79.049 242.601 65.459C241.261 73.629 238.991 81.789 235.731 89.789C228.051 108.659 215.841 124.329 200.871 136.049C222.801 150.429 247.281 159.119 272.291 162.209C274.841 147.159 274.371 131.349 270.361 115.609L270.361 115.599Z" fill="#30C0D3"/>
<path d="M18.4325 46.749C18.3125 75.939 29.5925 104.159 49.6725 125.199C56.5125 83.489 86.6025 47.569 129.453 35.099C121.353 1.93898 123.433 -33.261 135.813 -65.501C89.6425 -67.361 45.1825 -40.541 26.7625 4.71897C24.3225 10.709 22.4725 16.799 21.1125 22.909L2.04252 30.949C-0.0174784 31.819 -0.257469 34.629 1.61253 35.849L18.4425 46.749L18.4325 46.749Z" fill="white"/>
<path d="M88.713 151.749C127.553 167.559 170.063 160.159 200.873 136.039C192.723 130.699 184.933 124.579 177.593 117.659C152.983 94.4891 136.903 65.6591 129.443 35.0991C86.6031 47.5691 56.5031 83.4891 49.6631 125.199C60.3231 136.379 73.473 145.539 88.713 151.739L88.713 151.749Z" fill="#FF3D73"/>
<path d="M129.442 35.109C130.692 34.749 131.942 34.399 133.212 34.069C174.072 23.679 215.392 37.029 242.602 65.459C250.952 14.639 223.482 -37.001 173.772 -57.241C161.322 -62.311 148.502 -64.981 135.802 -65.501C123.422 -33.261 121.352 1.93897 129.442 35.099L129.442 35.109Z" fill="#302E5F"/>
<path d="M177.594 117.669C184.934 124.579 192.734 130.699 200.874 136.049C215.844 124.329 228.054 108.659 235.734 89.7891C238.984 81.7891 241.254 73.6391 242.604 65.4591C215.394 37.0291 174.074 23.6791 133.214 34.0691C131.944 34.3891 130.694 34.7391 129.444 35.1091C136.904 65.6691 152.984 94.4991 177.594 117.669Z" fill="#05214A"/>
</svg>
