<?xml version="1.0" encoding="UTF-8" standalone="no" ?>
<!DOCTYPE svg PUBLIC "-//W3C//DTD SVG 1.1//EN" "http://www.w3.org/Graphics/SVG/1.1/DTD/svg11.dtd">
<svg xmlns="http://www.w3.org/2000/svg" xmlns:xlink="http://www.w3.org/1999/xlink" version="1.1" width="640" height="480" viewBox="0 0 640 480" xml:space="preserve">
<desc>Created with Fabric.js 3.6.6</desc>
<defs>
</defs>
<g transform="matrix(0.92 0 0 0.92 235.72 235.77)"  >
<path style="stroke: none; stroke-width: 1; stroke-dasharray: none; stroke-linecap: butt; stroke-dashoffset: 0; stroke-linejoin: miter; stroke-miterlimit: 4; fill: rgb(119,119,119); fill-rule: nonzero; opacity: 1;"  transform=" translate(-255.99, -256.04)" d="M 416 208 c 0 45.9 -14.9 88.3 -40 122.7 L 502.6 457.4 c 12.5 12.5 12.5 32.8 0 45.3 s -32.8 12.5 -45.3 0 L 330.7 376 c -34.4 25.2 -76.8 40 -122.7 40 C 93.1 416 0 322.9 0 208 S 93.1 0 208 0 S 416 93.1 416 208 z M 208 352 a 144 144 0 1 0 0 -288 a 144 144 0 1 0 0 288 z" stroke-linecap="round" />
</g>
</svg>